<svg height="512pt" viewBox="0 0 512.00002 512" width="512pt" xmlns="http://www.w3.org/2000/svg"><path d="m512 37.074219v17.410156c.003906 4.242187-3.011719 7.882813-7.175781 8.675781l-10.480469 1.988282-43.765625 17.980468-35.679687-3.152344v-28.46875c-.003907-4.265624 3.046874-7.921874 7.246093-8.683593l79.449219-14.453125c2.578125-.46875 5.230469.234375 7.242188 1.914062 2.011718 1.679688 3.167968 4.167969 3.164062 6.789063zm0 0" fill="#f9eab0"/><path d="m370.757812 300.136719-114.757812 38.621093-114.757812-38.621093v-195.972657h229.515624zm0 0" fill="#fdd7ad"/><g fill="#805333"><path d="m282.484375 300.136719c-9.535156.585937-18.957031-2.335938-26.484375-8.21875-7.75 5.441406-17.011719 8.316406-26.484375 8.21875-4.875 0-8.824219-3.949219-8.824219-8.828125 0-4.875 3.949219-8.824219 8.824219-8.824219.335937 0 17.65625-.53125 17.65625-8.828125 0-4.875 3.953125-8.828125 8.828125-8.828125s8.828125 3.953125 8.828125 8.828125c.097656 1.261719 1.402344 8.828125 17.65625 8.828125 4.875 0 8.824219 3.949219 8.824219 8.824219 0 4.878906-3.949219 8.828125-8.824219 8.828125zm0 0"/><path d="m185.378906 273.65625c-4.875 0-8.828125-3.953125-8.828125-8.828125s3.953125-8.828125 8.828125-8.828125c7.8125-3.433594 14.753906-8.585938 20.304688-15.070312 21.183594-21.265626 51.816406-11.414063 53.105468-10.960938 2.996094.988281 5.238282 3.503906 5.878907 6.59375s-.417969 6.285156-2.773438 8.386719c-2.355469 2.097656-5.652343 2.78125-8.648437 1.789062-.210938-.070312-21.65625-6.796875-35.144532 6.683594-18.785156 18.769531-29.792968 20.234375-32.722656 20.234375zm0 0"/><path d="m326.621094 273.65625c-2.929688 0-13.9375-1.464844-32.722656-20.242188-13.488282-13.480468-34.933594-6.753906-35.136719-6.683593-4.628907 1.535156-9.628907-.976563-11.160157-5.609375-1.535156-4.632813.976563-9.628906 5.609376-11.164063 1.289062-.421875 31.902343-10.308593 53.167968 10.964844 13.824219 13.84375 20.886719 15.078125 20.957032 15.078125 2.304687.011719 4.507812.957031 6.105468 2.617188 1.597656 1.664062 2.453125 3.90625 2.367188 6.210937-.15625 4.949219-4.234375 8.867187-9.1875 8.828125zm0 0"/></g><path d="m379.410156 344.980469-4.238281 98.058593c-11.210937-11.371093-40.164063-45.796874-57.378906-45.796874-34.164063 0-61.792969 65.148437-61.792969 99.308593 0-34.160156-27.628906-99.308593-61.792969-99.308593-17.214843 0-46.167969 32.203124-57.378906 43.589843l-4.238281-95.851562 10.242187-2.46875c8.425781-2.058594 16.066407-6.539063 21.980469-12.890625l64.703125-18.800782 2.828125 1.410157c14.898438 7.417969 32.414062 7.417969 47.3125 0l2.828125-1.410157 64.703125 18.800782c5.914062 6.351562 13.554688 10.832031 21.980469 12.890625l1.0625.261719zm0 0" fill="#5e5f62"/><path d="m110.34375 450.207031-13.242188 61.792969h-88.273437c-4.875 0-8.828125-3.953125-8.828125-8.828125v-77.503906c0-28.542969 19.5625-53.363281 47.316406-60.03125l31.335938-7.589844zm0 0" fill="#7f8c8d"/><path d="m512 425.667969v77.503906c0 4.875-3.953125 8.828125-8.828125 8.828125h-88.273437l-8.828126-61.792969 27.277344-92.160156 31.335938 7.589844c27.753906 6.667969 47.316406 31.488281 47.316406 60.03125zm0 0" fill="#7f8c8d"/><path d="m433.347656 358.046875-18.449218 92.160156v61.792969h-317.796876v-61.792969l-18.449218-92.160156 53.9375-13.066406 17.65625 70.621093c17.613281-17.828124 44.25-23.253906 67.4375-13.734374 23.183594 9.523437 38.320312 32.105468 38.316406 57.167968-.003906-25.0625 15.132812-47.644531 38.316406-57.167968 23.1875-9.519532 49.824219-4.09375 67.4375 13.734374l17.65625-70.621093 43.078125 10.417969zm0 0" fill="#c03a2b"/><path d="m229.515625 296.5v51.148438c0 3.058593-1.585937 5.898437-4.1875 7.503906-2.601563 1.609375-5.847656 1.753906-8.585937.386718l-40.191407-20.089843-27.453125-13.683594-16.683594-8.386719-21.601562-10.804687c-2.988281-1.492188-4.878906-4.550781-4.882812-7.890625v-27.773438c0-1.371094.320312-2.722656.9375-3.945312l6.957031-13.929688c.613281-1.222656.933593-2.574218.933593-3.945312v-99.433594h35.3125v92.6875c-.023437 3.113281.273438 6.21875.882813 9.269531l74.027344 41.171875c2.800781 1.558594 4.535156 4.511719 4.535156 7.714844zm0 0" fill="#cb8252"/><path d="m150.070312 282.484375v35.308594c-.007812 1.382812-.34375 2.742187-.972656 3.972656l-16.683594-8.386719v-30.894531c0-4.875 3.953126-8.828125 8.828126-8.828125s8.828124 3.953125 8.828124 8.828125zm0 0" fill="#805333"/><path d="m194.207031 308.964844v26.484375c0 2.777343-1.308593 5.394531-3.53125 7.0625l-14.125-7.0625v-26.484375c0-4.875 3.953125-8.828125 8.828125-8.828125s8.828125 3.953125 8.828125 8.828125zm0 0" fill="#805333"/><path d="m406.070312 266.910156v27.773438c-.003906 3.339844-1.894531 6.398437-4.882812 7.890625l-21.601562 10.804687-16.683594 8.386719-27.453125 13.683594-40.191407 20.089843c-2.738281 1.367188-5.984374 1.222657-8.585937-.386718-2.601563-1.605469-4.1875-4.445313-4.1875-7.503906v-51.148438c0-3.203125 1.734375-6.15625 4.535156-7.714844l74.027344-41.171875c.609375-3.050781.90625-6.15625.882813-9.269531v-92.6875h35.3125v99.433594c0 1.371094.320312 2.722656.933593 3.945312l6.957031 13.929688c.617188 1.222656.9375 2.574218.9375 3.945312zm0 0" fill="#cb8252"/><path d="m379.585938 282.484375v30.894531l-16.683594 8.386719c-.628906-1.230469-.964844-2.589844-.972656-3.972656v-35.308594c0-4.875 3.953124-8.828125 8.828124-8.828125s8.828126 3.953125 8.828126 8.828125zm0 0" fill="#805333"/><path d="m335.449219 308.964844v26.484375l-14.125 7.0625c-2.222657-1.667969-3.53125-4.285157-3.53125-7.0625v-26.484375c0-4.875 3.953125-8.828125 8.828125-8.828125s8.828125 3.953125 8.828125 8.828125zm0 0" fill="#805333"/><path d="m203.035156 194.207031c-4.875 0-8.828125-3.953125-8.828125-8.828125v-17.65625c0-4.875 3.953125-8.824218 8.828125-8.824218s8.828125 3.949218 8.828125 8.824218v17.65625c0 4.875-3.953125 8.828125-8.828125 8.828125zm0 0" fill="#2c2f38"/><path d="m308.964844 194.207031c-4.875 0-8.828125-3.953125-8.828125-8.828125v-17.65625c0-4.875 3.953125-8.824218 8.828125-8.824218s8.828125 3.949218 8.828125 8.824218v17.65625c0 4.875-3.953125 8.828125-8.828125 8.828125zm0 0" fill="#2c2f38"/><path d="m220.691406 176.550781h-35.3125c-4.875 0-8.828125-3.953125-8.828125-8.828125s3.953125-8.824218 8.828125-8.824218h35.3125c4.875 0 8.824219 3.949218 8.824219 8.824218s-3.949219 8.828125-8.824219 8.828125zm0 0" fill="#805333"/><path d="m326.621094 176.550781h-35.3125c-4.875 0-8.824219-3.953125-8.824219-8.828125s3.949219-8.824218 8.824219-8.824218h35.3125c4.875 0 8.828125 3.949218 8.828125 8.824218s-3.953125 8.828125-8.828125 8.828125zm0 0" fill="#805333"/><path d="m141.242188 463.449219c-4.046876-.003907-7.570313-2.757813-8.554688-6.683594l-8.828125-35.308594c-1.144531-4.714843 1.726563-9.46875 6.433594-10.648437 4.707031-1.179688 9.480469 1.660156 10.691406 6.355468l8.828125 35.3125c.570312 2.269532.210938 4.675782-.992188 6.683594-1.207031 2.007813-3.160156 3.457032-5.433593 4.023438-.703125.179687-1.421875.265625-2.144531.265625zm0 0" fill="#d25627"/><path d="m370.757812 463.449219c-.722656 0-1.441406-.085938-2.144531-.265625-2.273437-.566406-4.226562-2.015625-5.433593-4.023438-1.203126-2.007812-1.5625-4.414062-.992188-6.683594l8.828125-35.3125c1.210937-4.695312 5.984375-7.535156 10.691406-6.355468 4.707031 1.179687 7.578125 5.933594 6.433594 10.648437l-8.828125 35.308594c-.984375 3.925781-4.507812 6.679687-8.554688 6.683594zm0 0" fill="#d25627"/><path d="m97.101562 51.507812v28.46875l-37.886718 8.300782-41.558594-23.128906-10.480469-1.988282c-4.164062-.792968-7.17968725-4.433594-7.175781-8.675781v-17.410156c0-2.617188 1.160156-5.097657 3.171875-6.777344 2.007813-1.675781 4.660156-2.375 7.234375-1.90625l79.449219 14.449219c4.191406.761718 7.238281 4.410156 7.246093 8.667968zm0 0" fill="#f9eab0"/><path d="m150.773438 88.277344c-.527344 2.824218 9.597656 4.414062 9.597656 7.378906l-10.300782 27.929688-48.554687 2.578124-48.550781-22-28.246094-5.640624c-4.117188-.839844-7.070312-4.460938-7.0625-8.660157v-24.714843l79.445312 14.828124 44.140626 8.300782zm0 0" fill="#f5efca"/><path d="m459.035156 104.164062v29.707032c0 4.265625-3.050781 7.921875-7.25 8.6875l-89.855468 16.339844v-46.71875zm0 0" fill="#f9eab0"/><path d="m494.34375 65.148438v24.714843c.007812 4.199219-2.945312 7.820313-7.0625 8.660157l-28.246094 5.640624-97.105468 19.421876-6.988282-27.929688c0-3 6.8125-4.554688 6.285156-7.378906h9.53125l44.140626-8.300782zm0 0" fill="#f5efca"/><path d="m256 459.035156c.03125 21.710938-11.371094 41.832032-30.015625 52.964844h-63.558594c-25.609375-15.359375-36.574219-46.832031-26.042969-74.777344 10.527344-27.945312 39.53125-44.367187 68.910157-39.007812 29.378906 5.355468 50.722656 30.957031 50.707031 60.820312zm0 0" fill="#cb8252"/><path d="m220.691406 459.035156c0 14.625-11.859375 26.480469-26.484375 26.480469s-26.484375-11.855469-26.484375-26.480469 11.859375-26.484375 26.484375-26.484375 26.484375 11.859375 26.484375 26.484375zm0 0" fill="#f18d46"/><path d="m379.585938 459.035156c.03125 21.710938-11.371094 41.832032-30.011719 52.964844h-63.558594c-25.613281-15.359375-36.574219-46.832031-26.046875-74.777344 10.527344-27.945312 39.53125-44.367187 68.910156-39.007812 29.378906 5.355468 50.722656 30.957031 50.707032 60.820312zm0 0" fill="#cb8252"/><path d="m344.277344 459.035156c0 14.625-11.859375 26.480469-26.484375 26.480469s-26.484375-11.855469-26.484375-26.480469 11.859375-26.484375 26.484375-26.484375 26.484375 11.859375 26.484375 26.484375zm0 0" fill="#f18d46"/><path d="m150.070312 123.585938v35.3125l-89.855468-16.339844c-4.199219-.765625-7.25-4.421875-7.25-8.6875v-29.707032zm0 0" fill="#f9eab0"/><path d="m361.929688 97.101562v26.484376h-83.550782c-2.953125 0-5.707031 1.472656-7.34375 3.929687l-7.691406 11.535156c-1.636719 2.457031-4.390625 3.929688-7.34375 3.929688s-5.707031-1.472657-7.34375-3.929688l-7.664062-11.535156c-1.640626-2.464844-4.410157-3.9375-7.371094-3.929687h-83.550782v-26.484376c-.035156-2.957031.199219-5.910156.703126-8.824218l103.019531-25.75 107.433593 25.75c.503907 2.914062.738282 5.867187.703126 8.824218zm0 0" fill="#95a5a5"/><path d="m370.757812 88.277344h-229.515624c0-48.753906 39.523437-88.277344 88.273437-88.277344h52.96875c48.75 0 88.273437 39.523438 88.273437 88.277344zm0 0" fill="#5e5f62"/></svg>